<svg width="336" height="120" viewBox="0 0 336 120" fill="none" xmlns="http://www.w3.org/2000/svg">
<g clip-path="url(#clip0)">
<path d="M54.4589 63.8017C53.3309 67.6225 51.6029 70.9633 49.2677 73.8241C46.9325 76.6777 43.9949 78.9337 40.4549 80.5825C36.9125 82.2313 32.7677 83.0569 28.0205 83.0569C24.4781 83.0569 21.1589 82.5289 18.0605 81.4873C14.9621 80.4409 12.2069 78.9505 9.79252 77.0209C7.37811 75.0913 5.34291 72.7561 3.69411 70.0177C2.04291 67.2841 0.895715 64.2241 0.252515 60.8425C0.118076 60.3699 0.0367735 59.8836 0.0101146 59.3929C-0.0714854 58.2673 0.209315 57.3409 0.854915 56.6161C1.49811 55.8913 2.38371 55.4881 3.51171 55.4089C4.55811 55.3297 5.44131 55.5697 6.16851 56.1337C6.89091 56.6953 7.33251 57.4633 7.49571 58.4281C7.97811 61.0849 8.80131 63.4801 9.97011 65.6113C11.1029 67.7053 12.6178 69.5686 14.4365 71.1049C16.2638 72.6452 18.3486 73.8508 20.5949 74.6665C22.8869 75.5113 25.3637 75.9313 28.0181 75.9313C34.2941 75.9313 39.2453 73.8793 42.8669 69.7777C46.4885 65.6713 48.3005 59.5969 48.3005 51.5473V3.98414C48.3005 2.85854 48.6821 1.91294 49.4477 1.14734C49.8174 0.772816 50.2597 0.477847 50.7476 0.280563C51.2354 0.0832797 51.7584 -0.0121499 52.2845 0.000140012C53.4101 0.000140012 54.3365 0.38414 55.0613 1.14734C55.7861 1.91294 56.1485 2.85854 56.1485 3.98414V51.4297C56.1485 55.8529 55.5845 59.9785 54.4589 63.8017ZM76.9109 12.8569C76.1069 13.7017 75.1013 14.1217 73.8941 14.1217C72.6869 14.1217 71.6381 13.6993 70.7549 12.8569C69.8693 12.0097 69.4277 10.9849 69.4277 9.77774C69.4277 8.57054 69.8693 7.54334 70.7549 6.70094C71.6381 5.85614 72.6869 5.43374 73.8941 5.43374C75.1013 5.43374 76.1069 5.85614 76.9109 6.70094C77.7125 7.54574 78.1181 8.57054 78.1181 9.77774C78.1181 10.9849 77.7149 12.0121 76.9109 12.8569V12.8569ZM76.4285 81.4273C75.7829 82.1089 74.9381 82.4545 73.8941 82.4545C72.8453 82.4545 71.9621 82.1089 71.2397 81.4273C70.8844 81.0966 70.6036 80.694 70.4161 80.2462C70.2286 79.7984 70.1388 79.3158 70.1525 78.8305V31.7497C70.1525 30.7057 70.5149 29.8393 71.2397 29.1553C71.9621 28.4737 72.8477 28.1281 73.8941 28.1281C74.9381 28.1281 75.7853 28.4737 76.4285 29.1553C77.0717 29.8393 77.3933 30.7057 77.3933 31.7497V78.8305C77.3957 79.8793 77.0717 80.7457 76.4285 81.4273ZM134.614 72.4345C132.2 75.4921 129.101 78.0049 125.319 79.9801C121.537 81.9505 117.43 82.9369 113.005 82.9369C109.143 82.9369 105.541 82.2313 102.2 80.8225C98.9392 79.4687 95.9687 77.502 93.4493 75.0289C90.9533 72.5761 88.9829 69.6577 87.5357 66.2785C86.0861 62.8993 85.3613 59.2369 85.3613 55.2937C85.3613 51.3505 86.0861 47.6881 87.5357 44.3089C88.9131 41.0313 90.9225 38.0571 93.4493 35.5561C95.971 33.0852 98.9408 31.118 102.2 29.7601C105.541 28.3537 109.143 27.6481 113.005 27.6481C120.166 27.6481 126.526 30.1825 132.077 35.2513C132.802 35.9761 133.167 36.7417 133.167 37.5457C133.167 38.2705 132.925 38.9161 132.442 39.4777C131.797 40.2001 131.033 40.5625 130.148 40.5625C129.423 40.5625 128.777 40.3633 128.216 39.9601C125.801 38.1097 123.365 36.6409 120.913 35.5537C118.421 34.4592 115.726 33.9039 113.005 33.9241C110.108 33.9241 107.41 34.4857 104.917 35.6137C102.481 36.6989 100.285 38.258 98.4581 40.2001C96.6244 42.17 95.1711 44.4622 94.1717 46.9609C93.1229 49.5385 92.6021 52.3153 92.6021 55.2913C92.6021 58.2697 93.1253 61.0465 94.1717 63.6193C95.1691 66.1191 96.6226 68.4117 98.4581 70.3801C100.285 72.323 102.48 73.8822 104.917 74.9665C107.41 76.0969 110.108 76.6585 113.005 76.6585C116.869 76.6585 120.166 75.8329 122.905 74.1841C125.581 72.5799 128.019 70.6078 130.148 68.3257C130.709 67.6849 131.434 67.3657 132.32 67.3657C133.205 67.3657 133.928 67.6465 134.492 68.2105C135.053 68.7721 135.337 69.4993 135.337 70.3825C135.339 71.1841 135.099 71.8681 134.614 72.4345V72.4345ZM182.782 82.3321C182.621 82.3321 182.48 82.3537 182.357 82.3921C182.235 82.4305 182.096 82.4521 181.935 82.4521C180.97 82.4521 180.205 82.0897 179.643 81.3649L156.704 54.6865L148.978 60.8425V78.8305C148.978 79.7977 148.633 80.6449 147.951 81.3673C147.639 81.7141 147.257 81.9904 146.83 82.1778C146.403 82.3653 145.94 82.4596 145.474 82.4545C144.509 82.4545 143.665 82.0921 142.94 81.3673C142.595 81.0411 142.321 80.6477 142.134 80.2114C141.947 79.7751 141.851 79.3052 141.853 78.8305V3.62174C141.853 2.65694 142.196 1.81214 142.877 1.08734C143.209 0.732463 143.613 0.452066 144.061 0.264657C144.51 0.0772488 144.993 -0.0129075 145.479 0.000140012C146.525 0.000140012 147.37 0.36254 148.016 1.08734C148.659 1.81214 148.981 2.65694 148.981 3.62174V52.3921L178.676 28.8529C179.237 28.3681 179.926 28.1281 180.728 28.1281C181.935 28.1281 182.821 28.5337 183.382 29.3353C183.865 29.9809 184.109 30.7057 184.109 31.5097C184.109 32.5561 183.663 33.4009 182.78 34.0441L162.015 50.7049L184.712 77.0209C185.194 77.6689 185.434 78.4297 185.434 79.3153C185.437 80.9257 184.551 81.9313 182.782 82.3321V82.3321ZM202.58 12.8569C201.773 13.7017 200.768 14.1217 199.561 14.1217C198.353 14.1217 197.307 13.6993 196.421 12.8569C195.536 12.0097 195.092 10.9849 195.092 9.77774C195.092 8.57054 195.536 7.54334 196.421 6.70094C197.305 5.85614 198.353 5.43374 199.561 5.43374C200.768 5.43374 201.773 5.85614 202.58 6.70094C203.384 7.54574 203.787 8.57054 203.787 9.77774C203.787 10.9849 203.384 12.0121 202.58 12.8569V12.8569ZM202.097 81.4273C201.452 82.1089 200.607 82.4545 199.561 82.4545C198.512 82.4545 197.629 82.1089 196.906 81.4273C196.184 80.7457 195.819 79.8769 195.819 78.8305V31.7497C195.819 30.7057 196.181 29.8393 196.906 29.1553C197.631 28.4737 198.514 28.1281 199.561 28.1281C200.607 28.1281 201.452 28.4737 202.097 29.1553C202.741 29.8393 203.062 30.7057 203.062 31.7497V78.8305C203.062 79.8793 202.741 80.7457 202.097 81.4273Z" fill="#9CA3AF"/>
<path d="M255.576 111.48C255.326 111.377 255.076 111.272 254.827 111.166L254.237 110.909C253.848 110.734 253.457 110.558 253.07 110.371C252.107 109.913 251.154 109.434 250.212 108.934L249.653 108.624L249.096 108.31C248.911 108.206 248.729 108.098 248.546 107.993C248.359 107.885 248.177 107.774 247.997 107.666C247.45 107.338 246.907 107.002 246.37 106.658C246.192 106.541 246.017 106.423 245.837 106.308C245.662 106.19 245.484 106.07 245.306 105.955C245.129 105.84 244.956 105.718 244.781 105.598L244.258 105.235C244.087 105.113 243.912 104.986 243.739 104.866C243.397 104.616 243.057 104.364 242.719 104.11C242.549 103.98 242.378 103.853 242.215 103.723C241.711 103.334 241.217 102.936 240.727 102.533C240.564 102.396 240.401 102.262 240.242 102.125C240.084 101.986 239.918 101.849 239.76 101.712L239.292 101.302L239.273 101.282C239.119 101.143 238.963 101.009 238.812 100.87L238.354 100.452C238.344 100.442 238.332 100.435 238.325 100.423C238.02 100.143 237.719 99.8579 237.422 99.5688L236.969 99.1248C236.818 98.976 236.669 98.8296 236.52 98.676C236.37 98.5266 236.222 98.3754 236.076 98.2224L235.637 97.7736L235.632 97.764L235.198 97.308L234.768 96.84C234.749 96.8184 234.737 96.8016 234.718 96.7848C234.449 96.4903 234.185 96.1919 233.926 95.8896L233.508 95.412L233.1 94.9272L232.697 94.4376L232.298 93.9432L231.905 93.444C231.773 93.2784 231.646 93.108 231.518 92.9376C231.389 92.7744 231.266 92.6016 231.139 92.4336C231.011 92.2641 230.886 92.0929 230.762 91.92C230.618 91.7304 230.479 91.5336 230.342 91.3416L230.026 90.888C229.902 90.7141 229.781 90.5381 229.663 90.36C229.543 90.1872 229.426 90.0096 229.31 89.8344C229.193 89.6568 229.075 89.4792 228.96 89.2968C228.866 89.1528 228.773 89.0136 228.684 88.8672L228.682 88.8648L228.571 88.6848C228.096 88.014 227.672 87.3088 227.302 86.5752C226.998 86.0449 226.704 85.5097 226.418 84.9696L226.334 84.8184L226.082 84.3288C225.991 84.1488 225.9 83.976 225.811 83.7936C225.794 83.7624 225.775 83.7312 225.763 83.7C225.676 83.5282 225.592 83.3553 225.509 83.1816C225.415 82.9896 225.322 82.7976 225.233 82.6032L224.959 82.0224C224.87 81.8295 224.783 81.6359 224.698 81.4416C224.606 81.2424 224.522 81.048 224.436 80.8512C224.352 80.6544 224.268 80.46 224.186 80.2584C224.023 79.8624 223.858 79.464 223.702 79.0632C223.478 78.5017 223.265 77.936 223.063 77.3664L222.982 77.1408L222.806 76.6392C222.749 76.4568 222.682 76.2744 222.622 76.092C222.608 76.0524 222.595 76.0123 222.583 75.972L222.434 75.5136L222.379 75.3336C222.329 75.1848 222.286 75.0336 222.238 74.8848C222.187 74.7228 222.139 74.5604 222.091 74.3976C222.041 74.2392 221.995 74.0784 221.95 73.9176C221.892 73.7328 221.842 73.548 221.789 73.3656C221.753 73.2391 221.719 73.1119 221.688 72.984C221.575 72.5798 221.47 72.1733 221.374 71.7648C221.352 71.7 221.335 71.6304 221.318 71.5632L221.23 71.1792L221.215 71.1264C221.17 70.9416 221.129 70.752 221.086 70.5672C221.035 70.3368 220.982 70.104 220.937 69.8736C220.898 69.708 220.867 69.54 220.834 69.3768L220.802 69.2352C220.706 68.7528 220.615 68.2608 220.534 67.776C220.495 67.5672 220.462 67.3584 220.426 67.1472L220.421 67.1184C220.395 66.9758 220.372 66.8325 220.354 66.6888L220.346 66.6504C220.33 66.5376 220.31 66.4296 220.298 66.3168L220.224 65.808C220.193 65.6088 220.171 65.4096 220.147 65.2104C220.138 65.1696 220.135 65.1312 220.128 65.088C220.111 64.9416 220.092 64.8024 220.078 64.656L220.044 64.3968L220.042 64.3752C220.02 64.1899 220.001 64.0043 219.984 63.8184C219.963 63.6322 219.945 63.4458 219.929 63.2592L219.902 62.9784L219.866 62.5776L219.818 61.968L219.816 61.9008L219.785 61.4496C219.771 61.2778 219.76 61.1058 219.754 60.9336C219.746 60.792 219.737 60.648 219.732 60.504C219.722 60.3072 219.722 60.108 219.713 59.9112C219.708 59.712 219.703 59.5176 219.703 59.3184V59.2752C219.703 59.0592 219.684 58.8408 219.679 58.6248C219.676 58.5873 219.675 58.5496 219.674 58.512C219.672 58.2552 219.665 57.996 219.665 57.7392C219.665 57.4872 219.667 57.2376 219.672 56.988C219.674 56.7672 219.674 56.5488 219.682 56.3304L219.696 55.872C219.698 55.7127 219.703 55.5535 219.71 55.3944L219.734 54.9168C219.742 54.756 219.746 54.5976 219.758 54.4392L219.761 54.3888L219.775 54.1776L219.799 53.7984C219.806 53.664 219.818 53.5296 219.83 53.3976C219.835 53.2872 219.854 53.1696 219.864 53.0568C219.874 52.9488 219.902 52.8384 219.902 52.728C219.902 52.596 219.914 52.4688 219.926 52.3368L219.984 51.7104L220.037 51.18C220.042 51.1104 220.051 51.0432 220.061 50.976C220.066 50.9448 220.054 50.916 220.058 50.8824C220.07 50.7552 220.09 50.6304 220.09 50.5032V50.4936C220.09 50.4888 220.106 50.4864 220.106 50.4816C220.128 50.3016 220.157 50.1216 220.183 49.9416L220.241 49.5C220.245 49.4916 220.248 49.4828 220.25 49.4736C220.285 49.2144 220.325 48.9559 220.37 48.6984C220.39 48.552 220.414 48.4104 220.435 48.2688L220.462 48.1176C220.554 47.5502 220.656 46.9845 220.769 46.4208L220.85 46.0152C220.898 45.7824 220.944 45.552 220.997 45.324C221.004 45.3 221.004 45.2808 221.011 45.2616C221.057 45.0552 221.1 44.8488 221.15 44.6448L221.268 44.1456L221.345 43.8312C221.369 43.7256 221.395 43.62 221.424 43.5168C221.426 43.5 221.429 43.4808 221.436 43.4664C221.482 43.284 221.527 43.104 221.578 42.9264C221.59 42.8808 221.599 42.8376 221.614 42.7944L221.77 42.204L221.774 42.192L221.861 41.8752C221.894 41.7672 221.921 41.6616 221.954 41.556L222.11 41.016C222.247 40.5624 222.386 40.1112 222.538 39.6624L222.682 39.2232C222.941 38.448 223.222 37.68 223.514 36.9168C223.572 36.756 223.637 36.5952 223.702 36.4344C223.769 36.2592 223.843 36.084 223.913 35.9064L224.054 35.5632C224.105 35.4336 224.16 35.3088 224.213 35.1792L224.242 35.1048L224.45 34.6272L224.585 34.3176C224.595 34.2947 224.606 34.2723 224.618 34.2504C224.666 34.1304 224.722 34.0104 224.774 33.8928L224.794 33.8496C224.947 33.504 225.11 33.1608 225.271 32.8176C225.281 32.7984 225.288 32.7768 225.3 32.7576L225.526 32.292C225.638 32.0664 225.746 31.8432 225.862 31.6176L225.936 31.4688C226.013 31.3128 226.094 31.1568 226.178 31.0008C226.229 30.8976 226.284 30.7944 226.339 30.6912L226.692 30.024C227.029 29.4065 227.377 28.7944 227.734 28.188C227.892 27.9192 228.055 27.648 228.221 27.3792L228.545 26.8536C228.554 26.8409 228.562 26.8272 228.569 26.8128L228.835 26.3976C228.948 26.2224 229.058 26.0496 229.176 25.8768L229.457 25.4472L229.476 25.4232C229.55 25.3056 229.632 25.188 229.711 25.0728C229.858 24.8592 230.002 24.648 230.15 24.4368L230.467 23.9856L230.818 23.5056C230.929 23.3508 231.042 23.198 231.158 23.0472L231.653 22.3872L231.754 22.2576C231.93 22.0259 232.11 21.7971 232.294 21.5712C232.678 21.0882 233.07 20.6113 233.47 20.1408C233.599 19.9872 233.726 19.8336 233.861 19.68L234.269 19.2144L234.396 19.0728L234.758 18.6672L234.828 18.588L235.262 18.1224C235.397 17.9736 235.531 17.8296 235.673 17.6832L235.826 17.52L236.222 17.1144L236.59 16.7424C236.609 16.7184 236.63 16.6992 236.647 16.6824L236.748 16.5792L237.206 16.128L237.578 15.768L237.857 15.5016L238.212 15.1656C238.554 14.85 238.899 14.5372 239.246 14.2272C239.249 14.2248 239.254 14.2248 239.254 14.22L239.77 13.7688L240.358 13.2648L240.782 12.9144C240.941 12.78 241.106 12.648 241.267 12.516L241.666 12.1992C241.838 12.0576 242.016 11.9208 242.191 11.784L242.292 11.7072L242.842 11.2872L243.24 10.992C243.463 10.824 243.686 10.6608 243.907 10.5C243.938 10.4808 243.965 10.4568 243.994 10.44L244.361 10.1808C244.536 10.056 244.714 9.9312 244.894 9.8112C245.074 9.684 245.254 9.564 245.436 9.4416C245.616 9.3192 245.794 9.2016 245.981 9.0816C246.161 8.9616 246.346 8.844 246.53 8.7264L246.946 8.46L247.284 8.2512C247.416 8.1696 247.546 8.088 247.68 8.0088L248.213 7.6872L248.28 7.6464C248.481 7.52639 248.683 7.40957 248.887 7.296C249.402 6.99572 249.924 6.70685 250.452 6.4296L250.512 6.3936C250.67 6.312 250.826 6.2304 250.98 6.1464L251.131 6.0672L251.141 6.0648L251.582 5.8368L251.729 5.7672C251.897 5.6784 252.07 5.5968 252.242 5.5104C252.415 5.424 252.593 5.34 252.768 5.256C252.784 5.24658 252.801 5.23855 252.818 5.232L253.481 4.92L253.558 4.884C253.815 4.76653 254.072 4.65053 254.33 4.536L254.63 4.4016C254.87 4.2984 255.103 4.1952 255.346 4.0968L255.367 4.0872L256.135 3.7704C256.18 3.75425 256.224 3.73664 256.267 3.7176L257.078 3.4008C257.285 3.3216 257.496 3.2472 257.7 3.168C258.116 3.01576 258.534 2.86775 258.953 2.724L259.49 2.5416L259.656 2.4864C259.666 2.484 259.675 2.4816 259.68 2.4768L260.218 2.3064L260.856 2.1072L261.497 1.9152L262.142 1.7304L262.769 1.56C262.898 1.5288 263.026 1.4928 263.155 1.4592C263.671 1.325 264.189 1.19779 264.708 1.0776L264.744 1.0704C265.181 0.9696 265.622 0.8736 266.059 0.7824C266.28 0.7344 266.503 0.6936 266.724 0.6504L267.221 0.5568C267.389 0.5232 267.557 0.4968 267.72 0.4656C267.89 0.4368 268.061 0.4104 268.224 0.3792L268.728 0.2976C268.951 0.2616 269.177 0.228 269.4 0.1968C269.851 0.1296 270.302 0.1032 270.754 0.048C270.97 0.0165457 271.188 0.000505287 271.406 0C264.278 2.208 257.47 6.9432 251.599 13.6512C242.962 23.5176 237.06 37.0152 234.982 51.6816C231.35 77.2968 240.062 100.954 255.576 111.48V111.48ZM282.096 0.7632C282.058 0.7608 282.022 0.7872 281.986 0.7872H281.983C281.892 0.7872 281.806 0.7944 281.717 0.7944C271.697 0.7944 261.677 5.9664 253.505 15.3072C245.189 24.8088 239.498 37.8576 237.49 52.0464C235.411 66.7008 237.42 81.1944 243.139 92.8128C247.742 102.154 254.359 108.84 262.13 112.298H262.133C262.258 112.298 262.382 112.402 262.507 112.45C257.76 109.488 254.419 105.089 254.093 101.954C253.565 96.8232 257.201 98.1504 256.745 93.5184C256.373 89.784 253.577 90.2808 253.598 87.8184C253.646 84.1632 260.899 83.2872 261.298 80.9328C261.578 79.32 259.212 79.4328 257.585 78.7872C256.013 78.1584 252.893 76.2528 254.035 73.728C255.041 71.5104 256.997 68.7648 255.967 67.9536C253.55 66.0576 252.886 66.252 249.031 63.0864C244.63 59.4672 250.102 56.2944 252.415 54.4248C255.055 52.2912 263.021 48.396 264.286 39.636C264.847 35.7504 262.411 33.1488 262.723 27.3168C263.026 21.6504 264.514 10.692 282.096 0.7632V0.7632Z" fill="#9CA3AF"/>
<path d="M335.962 57.7344C335.965 62.8762 335.288 67.9959 333.948 72.96C333.636 74.112 333.29 75.2544 332.904 76.3824C325.79 97.4016 306.982 113.033 284.227 115.531C291.35 113.222 298.152 108.562 304.02 101.854C312.655 91.9872 318.557 78.4728 320.635 63.8016C322.718 49.116 320.798 34.4808 315.23 22.596C311.448 14.5224 306.199 8.15762 299.99 3.96962C310.392 8.26982 319.325 15.4903 325.711 24.7584C326.334 25.6603 326.931 26.5799 327.502 27.516L327.842 28.0776C328.4 29.0252 328.935 29.9863 329.446 30.96L329.748 31.548L330.041 32.1408L330.329 32.7384L330.612 33.3384C330.888 33.9384 331.159 34.548 331.416 35.16L331.673 35.7744C331.673 35.7864 331.68 35.7984 331.685 35.8104C332.109 36.8518 332.504 37.905 332.868 38.9688L333.055 39.5304C333.122 39.7416 333.194 39.9576 333.259 40.1688C333.326 40.38 333.396 40.596 333.458 40.8096C333.59 41.2392 333.71 41.6688 333.833 42.1008L333.991 42.672L334.226 43.5912C334.263 43.7255 334.296 43.8608 334.325 43.9968C334.339 44.0472 334.354 44.0976 334.363 44.148C334.409 44.328 334.45 44.508 334.49 44.688L334.51 44.7672C334.555 44.9544 334.594 45.144 334.637 45.3336L334.663 45.4656C334.699 45.612 334.726 45.7584 334.757 45.9048C334.793 46.068 334.824 46.2312 334.855 46.3944L334.858 46.404C334.949 46.8544 335.033 47.3065 335.107 47.76C335.138 47.9256 335.165 48.0936 335.189 48.2592C335.251 48.5855 335.302 48.9136 335.342 49.2432C335.364 49.3728 335.383 49.5072 335.398 49.6392L335.407 49.6896L335.484 50.2776L335.549 50.8104C335.573 50.9952 335.594 51.18 335.609 51.3648C335.642 51.6408 335.666 51.9192 335.695 52.1976C335.707 52.3032 335.717 52.4112 335.724 52.5216L335.767 52.9896C335.791 53.2752 335.81 53.5632 335.83 53.8488L335.861 54.336C335.887 54.7848 335.906 55.236 335.923 55.6872L335.94 56.3688C335.954 56.8224 335.962 57.2784 335.962 57.7344V57.7344ZM312.936 23.6688C308.354 13.8888 301.548 6.78242 293.515 3.27362C298.046 6.23042 301.207 10.4664 301.522 13.512C302.05 18.6384 298.416 17.3136 298.872 21.9456C299.242 25.6776 302.038 25.1832 302.016 27.6456C301.97 31.3008 294.715 32.1768 294.317 34.5312C294.041 36.144 296.402 36.0312 298.032 36.6792C299.602 37.3032 302.724 39.2112 301.582 41.7336C300.574 43.9536 298.618 46.7016 299.647 47.5104C302.064 49.4088 302.729 49.2168 306.583 52.3824C310.985 55.9968 305.515 59.1696 303.199 61.044C300.562 63.1776 292.596 67.0728 291.329 75.8376C290.77 79.7184 293.203 82.332 292.894 88.1664C292.594 93.8208 291.113 104.722 273.634 114.634C273.631 114.636 273.626 114.602 273.626 114.602H273.634C273.725 114.602 273.816 114.638 273.907 114.638C283.925 114.638 293.947 109.505 302.119 100.166C310.433 90.6648 316.121 77.628 318.13 63.4392C320.143 49.2336 318.3 35.1144 312.936 23.6688V23.6688Z" fill="#9CA3AF"/>
<path d="M0.451245 112.435C0.359571 112.363 0.285068 112.272 0.233169 112.168C0.181269 112.064 0.153281 111.949 0.151245 111.833C0.154342 111.627 0.237514 111.43 0.383127 111.285C0.528739 111.139 0.725341 111.056 0.931245 111.053C1.11544 111.056 1.29372 111.118 1.44005 111.23C3.54245 113.124 5.64245 113.966 8.52725 113.966C11.6808 113.966 13.8432 112.193 13.8432 109.793V109.733C13.8432 107.51 12.672 106.219 7.89845 105.259C2.85365 104.237 0.811245 102.526 0.811245 99.3456V99.2856C0.811245 96.1632 3.66245 93.7584 7.56725 93.7584C10.3896 93.7584 12.3408 94.4808 14.2632 95.9208C14.3623 95.9938 14.4435 96.0883 14.5009 96.1972C14.5583 96.3061 14.5902 96.4266 14.5944 96.5496C14.5908 96.7562 14.5072 96.9533 14.3614 97.0996C14.2155 97.2459 14.0186 97.3301 13.812 97.3344C13.6257 97.3343 13.4451 97.2699 13.3008 97.152C11.4696 95.7408 9.63845 95.1696 7.50485 95.1696C4.41125 95.1696 2.37125 96.9432 2.37125 99.1344V99.1944C2.37125 101.414 3.51125 102.766 8.49605 103.788C13.3608 104.777 15.4032 106.522 15.4032 109.582V109.642C15.4032 113.035 12.492 115.38 8.43605 115.38C5.28725 115.378 2.82485 114.384 0.451245 112.435V112.435ZM20.2104 100.39C20.2104 99.9408 20.5104 99.6408 20.9304 99.6408C21.3504 99.6408 21.6792 99.9432 21.6792 100.39V103.183C22.9992 101.174 24.9528 99.4032 27.984 99.4032C31.6776 99.4032 35.4312 102.372 35.4312 107.359V107.417C35.4312 112.399 31.6776 115.433 27.984 115.433C24.9216 115.433 22.9392 113.69 21.6792 111.77V119.246C21.6792 119.698 21.3792 119.998 20.9592 119.998C20.8597 120.001 20.7605 119.984 20.6678 119.948C20.5751 119.911 20.4909 119.856 20.4206 119.786C20.3503 119.715 20.2953 119.631 20.2592 119.538C20.223 119.445 20.2064 119.346 20.2104 119.246V100.39V100.39ZM33.8424 107.479V107.419C33.8424 103.394 31.0512 100.81 27.8376 100.81C24.6528 100.81 21.5904 103.483 21.5904 107.386V107.446C21.5904 111.379 24.6528 114.022 27.8376 114.022C31.1688 114.024 33.8424 111.59 33.8424 107.479V107.479ZM40.0272 100.39C40.0272 99.9696 40.3272 99.6408 40.7472 99.6408C41.1672 99.6408 41.496 99.9432 41.496 100.39V104.114C42.8184 101.143 45.492 99.5208 47.652 99.5208C48.1032 99.5208 48.4344 99.8808 48.4344 100.332C48.4377 100.543 48.3572 100.747 48.2106 100.899C48.064 101.051 47.8632 101.139 47.652 101.143C44.4072 101.443 41.496 103.877 41.496 108.802V114.446C41.496 114.866 41.196 115.195 40.776 115.195C40.6767 115.199 40.5777 115.182 40.4852 115.146C40.3927 115.109 40.3086 115.054 40.2383 114.984C40.168 114.914 40.113 114.83 40.0767 114.737C40.0404 114.645 40.0235 114.546 40.0272 114.446V100.39ZM50.0256 110.63V110.575C50.0256 107.388 52.7592 105.588 56.7216 105.588C58.8552 105.588 60.324 105.859 61.7976 106.248V105.588C61.7976 102.497 59.9064 100.906 56.7528 100.906C55.0704 100.906 53.6592 101.326 52.3992 101.928C52.2967 101.979 52.1849 102.009 52.0704 102.017C51.8894 102.01 51.7177 101.935 51.5896 101.806C51.4615 101.678 51.3864 101.507 51.3793 101.326C51.3793 100.968 51.648 100.726 51.7992 100.666C53.3592 99.9744 54.8928 99.5232 56.844 99.5232C58.9152 99.5232 60.5664 100.094 61.6776 101.206C62.6976 102.228 63.2377 103.639 63.2377 105.528V114.449C63.2377 114.9 62.9376 115.198 62.5176 115.198C62.0976 115.198 61.7976 114.898 61.7976 114.449V112.526C60.7464 113.998 58.8552 115.438 55.944 115.438C53.088 115.435 50.0256 113.815 50.0256 110.63V110.63ZM61.8264 109.342V107.597C60.1321 107.145 58.3865 106.913 56.6328 106.908C53.388 106.908 51.588 108.35 51.588 110.479V110.539C51.588 112.762 53.688 114.05 56.0304 114.05C59.1528 114.05 61.8264 112.133 61.8264 109.342V109.342ZM67.4713 107.479V107.419C67.4713 103.126 70.8936 99.4032 75.276 99.4032C77.9184 99.4032 79.6608 100.543 81.0408 101.832C81.1755 101.981 81.2507 102.174 81.252 102.374C81.253 102.473 81.2343 102.571 81.1971 102.662C81.1598 102.754 81.1047 102.837 81.035 102.907C80.9653 102.977 80.8824 103.032 80.7911 103.07C80.6998 103.107 80.602 103.126 80.5032 103.126C80.3208 103.126 80.1097 103.066 79.9921 102.943C78.7609 101.772 77.3185 100.786 75.2473 100.786C71.7649 100.786 69.06 103.694 69.06 107.362V107.419C69.06 111.113 71.8536 114.053 75.3648 114.053C77.3472 114.053 78.9384 113.093 80.1696 111.864C80.2896 111.744 80.4408 111.624 80.6496 111.624C81.0096 111.624 81.3696 111.982 81.3696 112.342C81.3694 112.509 81.305 112.671 81.1896 112.793C79.656 114.355 77.8872 115.435 75.2736 115.435C70.8624 115.435 67.4713 111.77 67.4713 107.479V107.479ZM85.6656 93.7848C85.6656 93.3648 85.9656 93.036 86.3856 93.036C86.4844 93.035 86.5823 93.0537 86.6737 93.091C86.7651 93.1283 86.8482 93.1833 86.9181 93.253C86.988 93.3227 87.0434 93.4056 87.0809 93.4969C87.1185 93.5882 87.1375 93.6861 87.1368 93.7848V102.614C88.1568 100.81 89.8705 99.4032 92.6617 99.4032C96.5353 99.4032 98.7888 102.043 98.7888 105.708V114.446C98.7888 114.898 98.4888 115.195 98.0664 115.195C97.9671 115.199 97.8681 115.182 97.7756 115.146C97.6831 115.109 97.599 115.054 97.5287 114.984C97.4584 114.914 97.4034 114.83 97.3671 114.737C97.3308 114.645 97.3139 114.546 97.3176 114.446V105.982C97.3176 102.828 95.544 100.754 92.4528 100.754C89.4528 100.754 87.1392 103.037 87.1392 106.217V114.446C87.1392 114.898 86.8392 115.195 86.4192 115.195C86.3198 115.199 86.2207 115.182 86.128 115.146C86.0354 115.109 85.9512 115.054 85.8807 114.984C85.8103 114.914 85.755 114.83 85.7184 114.737C85.6818 114.645 85.6647 114.546 85.668 114.446V93.7848H85.6656ZM118.306 114.446C118.306 114.898 118.006 115.195 117.586 115.195C117.166 115.195 116.834 114.895 116.834 114.446V111.653C115.514 113.666 113.563 115.435 110.53 115.435C106.836 115.435 103.082 112.464 103.082 107.482V107.422C103.082 102.437 106.836 99.4056 110.53 99.4056C113.592 99.4056 115.574 101.146 116.834 103.066V93.7872C116.834 93.336 117.134 93.0384 117.554 93.0384C117.974 93.0384 118.306 93.336 118.306 93.7872V114.446V114.446ZM104.674 107.359V107.417C104.674 111.439 107.465 114.022 110.678 114.022C113.861 114.022 116.926 111.35 116.926 107.446V107.386C116.926 103.454 113.861 100.81 110.678 100.81C107.345 100.81 104.674 103.246 104.674 107.359ZM136.711 114.446C136.711 114.866 136.411 115.195 135.991 115.195C135.571 115.195 135.242 114.895 135.242 114.446V112.224C134.22 114.024 132.509 115.435 129.718 115.435C125.844 115.435 123.59 112.793 123.59 109.13V100.39C123.59 99.9408 123.89 99.6408 124.31 99.6408C124.73 99.6408 125.062 99.9432 125.062 100.39V108.859C125.062 112.01 126.833 114.084 129.926 114.084C132.929 114.084 135.242 111.802 135.242 108.619V100.39C135.242 99.9408 135.542 99.6408 135.962 99.6408C136.382 99.6408 136.711 99.9432 136.711 100.39V114.446V114.446ZM141.305 113.395C141.223 113.324 141.157 113.236 141.11 113.138C141.063 113.039 141.037 112.933 141.034 112.824C141.034 112.435 141.365 112.104 141.754 112.104C141.934 112.104 142.114 112.162 142.234 112.253C143.825 113.398 145.505 113.998 147.338 113.998C149.41 113.998 151.032 112.855 151.032 111.084V111.024C151.032 109.224 149.11 108.562 146.978 107.962C144.487 107.242 141.725 106.493 141.725 103.757V103.697C141.725 101.237 143.796 99.4656 146.77 99.4656C148.421 99.4656 150.254 100.008 151.723 100.846C151.903 100.968 152.114 101.179 152.114 101.506C152.112 101.637 152.075 101.766 152.006 101.878C151.937 101.99 151.839 102.082 151.722 102.143C151.606 102.205 151.475 102.234 151.343 102.227C151.212 102.22 151.084 102.178 150.974 102.106C149.652 101.326 148.181 100.846 146.71 100.846C144.61 100.846 143.227 101.986 143.227 103.519V103.577C143.227 105.288 145.298 105.922 147.49 106.548C149.952 107.239 152.534 108.139 152.534 110.842V110.902C152.534 113.633 150.192 115.378 147.25 115.378C145.178 115.378 142.865 114.564 141.305 113.395ZM156.166 107.479V107.419C156.166 103.126 159.59 99.4032 163.973 99.4032C166.615 99.4032 168.358 100.543 169.738 101.832C169.874 101.98 169.949 102.174 169.949 102.374C169.95 102.473 169.931 102.571 169.894 102.663C169.856 102.755 169.801 102.838 169.731 102.908C169.661 102.978 169.578 103.033 169.486 103.07C169.395 103.108 169.297 103.127 169.198 103.126C169.011 103.131 168.829 103.066 168.689 102.943C167.455 101.772 166.015 100.786 163.944 100.786C160.459 100.786 157.759 103.694 157.759 107.362V107.419C157.759 111.113 160.55 114.053 164.064 114.053C166.046 114.053 167.638 113.093 168.866 111.864C168.989 111.744 169.138 111.624 169.346 111.624C169.706 111.624 170.071 111.982 170.071 112.342C170.071 112.51 170.006 112.672 169.889 112.793C168.358 114.355 166.586 115.435 163.975 115.435C159.559 115.435 156.166 111.77 156.166 107.479V107.479ZM174.36 93.7848C174.36 93.3648 174.662 93.036 175.082 93.036C175.181 93.035 175.279 93.0537 175.37 93.091C175.462 93.1283 175.545 93.1833 175.615 93.253C175.685 93.3227 175.74 93.4056 175.778 93.4969C175.815 93.5882 175.834 93.6861 175.834 93.7848V102.614C176.856 100.81 178.567 99.4032 181.356 99.4032C185.232 99.4032 187.486 102.043 187.486 105.708V114.446C187.486 114.898 187.183 115.195 186.763 115.195C186.343 115.195 186.012 114.895 186.012 114.446V105.982C186.012 102.828 184.241 100.754 181.15 100.754C178.147 100.754 175.836 103.037 175.836 106.217V114.446C175.836 114.898 175.534 115.195 175.111 115.195C175.012 115.199 174.913 115.182 174.82 115.146C174.728 115.109 174.644 115.054 174.574 114.984C174.503 114.914 174.448 114.83 174.412 114.737C174.376 114.645 174.359 114.546 174.362 114.446V93.7848H174.36ZM199.226 115.435C195.202 115.435 191.717 112.224 191.717 107.448V107.388C191.717 102.943 194.842 99.4056 198.982 99.4056C203.278 99.4056 206.011 102.946 206.011 107.33C206.011 107.693 205.651 108.022 205.289 108.022H193.277C193.548 111.835 196.282 114.055 199.286 114.055C201.478 114.055 203.009 113.155 204.238 111.958C204.299 111.891 204.373 111.838 204.455 111.801C204.538 111.765 204.627 111.746 204.718 111.746C205.109 111.746 205.438 112.046 205.438 112.438C205.434 112.534 205.411 112.629 205.37 112.717C205.329 112.804 205.27 112.882 205.198 112.946C203.7 114.446 201.986 115.435 199.226 115.435V115.435ZM204.42 106.697C204.209 103.606 202.44 100.752 198.924 100.752C195.89 100.752 193.55 103.303 193.277 106.697H204.42ZM210.302 100.39C210.302 99.9696 210.605 99.6408 211.025 99.6408C211.447 99.6408 211.776 99.9432 211.776 100.39V102.614C212.798 100.81 214.51 99.4032 217.298 99.4032C221.174 99.4032 223.428 102.043 223.428 105.708V114.446C223.428 114.898 223.126 115.195 222.706 115.195C222.286 115.195 221.954 114.895 221.954 114.446V105.982C221.954 102.828 220.183 100.754 217.092 100.754C214.09 100.754 211.778 103.037 211.778 106.217V114.446C211.778 114.898 211.476 115.195 211.056 115.195C210.957 115.199 210.857 115.182 210.765 115.146C210.672 115.109 210.588 115.054 210.518 114.984C210.447 114.914 210.392 114.83 210.355 114.737C210.319 114.645 210.301 114.546 210.305 114.446V100.39H210.302Z" fill="#9CA3AF"/>
</g>
<defs>
<clipPath id="clip0">
<rect width="335.962" height="120" fill="white"/>
</clipPath>
</defs>
</svg>
