<svg width="367" height="120" viewBox="0 0 367 120" fill="none" xmlns="http://www.w3.org/2000/svg">
<path d="M236.758 19.6281C236.536 19.8508 237.064 19.8228 237.092 19.7952C237.314 19.5726 236.786 19.6006 236.758 19.6281ZM226.918 19.9619C227.542 20.3046 227.692 20.3366 228.419 20.4622C227.794 20.1195 227.644 20.0875 226.918 19.9619ZM238.927 19.9619L239.427 20.4622L238.927 19.9619ZM149.862 20.4622L150.362 20.9626L149.862 20.4622ZM189.891 20.4622L190.391 20.9626L189.891 20.4622ZM225.417 20.4622C226.041 20.805 226.191 20.837 226.918 20.9626C226.293 20.6198 226.143 20.5878 225.417 20.4622ZM240.761 20.6289C240.539 20.8515 241.067 20.8235 241.095 20.796C241.317 20.5733 240.789 20.6013 240.761 20.6289ZM149.362 20.9626L149.862 21.463L149.362 20.9626ZM190.391 20.9626L190.892 21.463L190.391 20.9626ZM224.75 21.1292C224.527 21.3519 225.056 21.3239 225.083 21.2963C225.306 21.0737 224.777 21.1017 224.75 21.1292ZM241.929 20.9626L242.429 21.463L241.929 20.9626ZM190.892 21.463L191.392 21.9633L190.892 21.463ZM223.749 21.6296C223.526 21.8522 224.055 21.8242 224.082 21.7967C224.305 21.574 223.777 21.6021 223.749 21.6296ZM242.929 21.463L243.43 21.9633L242.929 21.463ZM222.748 22.1299C222.526 22.3526 223.054 22.3246 223.082 22.2971C223.304 22.0744 222.776 22.1024 222.748 22.1299ZM243.93 21.9633L244.431 22.4637L243.93 21.9633ZM121.842 95.5167V22.4637H37.7806H17.2657C12.8388 22.4637 8.08179 22.3551 4.25622 24.9615C-1.40703 28.8203 0.253312 35.9235 0.253312 41.9778V76.5029C0.253312 79.9869 -0.572633 84.7364 0.758309 88.0108C1.88763 90.7893 4.6661 92.6276 7.26035 93.8845C11.547 95.961 16.1349 95.5167 20.7682 95.5167H41.7835H121.842ZM148.361 22.4637L148.861 22.964L148.361 22.4637ZM191.392 22.4637L191.892 22.964L191.392 22.4637ZM221.914 22.4637L222.415 22.964L221.914 22.4637ZM244.931 22.4637L245.431 22.964L244.931 22.4637ZM267.447 22.4637V95.5167H282.458C282.931 92.3184 284.444 89.5409 285.46 86.5102H279.956V73.5007H292.966C292.966 77.6743 293.59 82.4107 292.776 86.5102C292.161 89.6114 290.449 92.3884 289.964 95.5167C290.562 95.2175 290.452 95.2835 290.964 94.516C292.508 96.2828 296.263 95.5167 298.47 95.5167H318.985H341.001C347.421 95.5167 353.097 95.7859 358.511 91.709C362.498 88.7073 364.874 83.3149 365.829 78.5044C366.733 73.9471 366.019 68.6337 366.019 63.9938C366.019 51.9161 368.945 35.2685 358.513 26.5792C351.278 20.5518 340.225 22.4637 331.494 22.4637H267.447ZM147.86 22.964L148.361 23.4644L147.86 22.964ZM191.892 22.964L192.393 23.4644L191.892 22.964ZM220.913 22.964L221.414 23.4644L220.913 22.964ZM245.431 22.964L245.932 23.4644L245.431 22.964ZM220.413 23.4644L220.913 23.9648L220.413 23.4644ZM192.393 23.9648L192.893 24.4651L192.393 23.9648ZM219.913 23.9648L220.413 24.4651L219.913 23.9648ZM246.932 23.9648L247.433 24.4651L246.932 23.9648ZM193.06 24.7989C193.032 24.8264 193.004 25.3548 193.227 25.1321C193.254 25.1046 193.282 24.5762 193.06 24.7989ZM219.412 24.4651L219.913 24.9655L219.412 24.4651ZM247.433 24.4651L247.933 24.9655L247.433 24.4651ZM146.86 24.9655L147.36 25.4659L146.86 24.9655ZM193.56 25.7996C193.533 25.8271 193.505 26.3555 193.727 26.1328C193.755 26.1053 193.783 25.5769 193.56 25.7996ZM217.911 25.4659L218.412 25.9662L217.911 25.4659ZM248.433 25.4659L248.934 25.9662L248.433 25.4659ZM146.359 25.9662L146.86 26.4666L146.359 25.9662ZM194.061 26.8003C194.033 26.8278 194.005 27.3562 194.228 27.1336C194.255 27.1061 194.283 26.5777 194.061 26.8003ZM249.434 26.4666L249.935 26.967L249.434 26.4666ZM145.859 26.967L146.359 27.4673L145.859 26.967ZM216.911 26.967L217.411 27.4673L216.911 26.967ZM249.935 26.967L250.435 27.4673L249.935 26.967ZM216.41 27.4673L216.911 27.9677L216.41 27.4673ZM250.435 27.4673L250.935 27.9677L250.435 27.4673ZM167.875 27.9677L168.375 28.468L167.875 27.9677Z" fill="#9CA3AF"/>
<path d="M22.7697 33.4717V85.0091H35.7791V69.9982C41.7534 69.9982 47.8988 69.5504 52.7719 65.653C60.369 59.5776 62.3749 44.4902 54.7714 37.6252C50.1734 33.4742 44.5924 33.4717 38.7813 33.4717H22.7697ZM65.8009 33.4717V85.0091H78.8103V63.9938L96.3231 64.4942V85.0091H109.333V33.4717H96.3231V53.9866H78.8103V33.4717H65.8009Z" fill="#FEFFFF"/>
<path d="M254.104 33.8054C254.077 33.8329 254.049 34.3613 254.271 34.1387C254.299 34.1111 254.327 33.5827 254.104 33.8054Z" fill="#9CA3AF"/>
<path d="M319.985 73.0003V85.0091H331.494V73.0003H338.999V61.9924H331.494V33.4717H321.486C320.019 33.4717 318.043 33.1554 316.743 33.986C314.553 35.3831 313.035 39.2999 311.693 41.4775C308.825 46.1343 306.014 50.8212 303.128 55.4681C301.696 57.7718 299.649 60.3372 298.964 62.9931C298.461 64.9455 299.054 71.181 300.766 72.486C302.024 73.4457 304.494 73.0003 305.975 73.0003H319.985Z" fill="#FEFFFF"/>
<path d="M35.7791 42.9786V60.4913C38.259 60.4913 41.4539 61.0332 43.6205 59.5886C47.7386 56.8431 48.2405 47.671 44.4451 44.5462C42.0385 42.5653 38.6867 42.9786 35.7791 42.9786ZM319.985 44.98C317.808 48.2099 316.079 51.6514 314.081 54.9873C312.638 57.398 310.855 59.6617 310.478 62.4927H320.486V50.9844C320.486 48.9914 320.762 46.8309 319.985 44.98Z" fill="#9CA3AF"/>
<path d="M319.652 46.8149C319.624 46.8424 319.596 47.3708 319.819 47.1481C319.846 47.1206 319.874 46.5922 319.652 46.8149Z" fill="#9CA3AF"/>
<path d="M237.425 63.4935L237.926 63.9938L237.425 63.4935ZM257.607 63.8272C257.579 63.8547 257.551 64.3831 257.774 64.1605C257.801 64.1329 257.829 63.6045 257.607 63.8272ZM141.356 63.9938L141.856 64.4942L141.356 63.9938Z" fill="#9CA3AF"/>
<path d="M297.969 64.4942V66.996C298.385 65.9803 298.385 65.5099 297.969 64.4942Z" fill="#9CA3AF"/>
<path d="M204.902 9.45423C204.901 8.14028 205.275 5.89565 204.1 4.96498C202.941 4.04781 200.774 4.49664 199.398 4.36554C195.061 3.95274 190.716 3.81264 186.388 3.23772L151.863 0.697879C151.863 0.697879 141.043 -0.239303 135.852 0.0584136C132.321 0.261061 128.805 3.60449 125.844 5.31123C124.447 6.11681 122.782 6.91089 122.143 8.50004C121.296 10.6101 121.842 13.7193 121.842 15.959V32.4709V89.5124V107.525C121.842 109.857 121.256 112.824 123.417 114.354C126.258 116.367 131.397 119.284 134.851 119.794C140.082 120.567 146.576 118.94 151.863 118.578L187.89 116.077C192.584 115.753 197.785 116.149 202.378 115.144C205.305 114.504 204.472 111.08 207.413 110.602C211.611 109.919 216.163 110.273 220.413 109.982C230.599 109.285 240.776 108.581 250.935 107.61C254.358 107.283 258.008 107.118 261.443 107.033C263.005 106.994 264.993 107.314 266.287 106.223C267.754 104.988 267.446 102.729 267.447 101.021V88.0113V33.4717V18.4608C267.447 16.7776 267.901 14.2212 266.287 13.1159C264.818 12.1097 262.618 12.4904 260.943 12.4489C257.685 12.3688 254.172 12.1952 250.935 11.8134C242.161 10.7777 233.237 10.8217 224.416 10.4354C217.904 10.1502 211.436 9.45423 204.902 9.45423Z" fill="#9CA3AF"/>
<path d="M190.391 53.9866C191.514 51.0194 193.516 48.4636 194.661 45.4804C196.454 40.808 196.576 34.2557 195.136 29.4688C190.032 12.5085 167.821 5.87814 154.077 16.639C146.37 22.6728 142.812 33.0439 145.301 42.4782C145.897 44.7379 146.644 46.9425 147.8 48.9829C148.451 50.1333 149.824 51.5573 149.566 52.9858C149.198 55.0293 146.436 56.9097 145.193 58.4898C142.549 61.8508 140.506 65.8217 139.522 69.9982C134.871 89.7525 150.695 109.906 171.378 108.481C184.201 107.598 196.095 99.4961 200.101 87.0106C201.27 83.3664 201.401 79.7878 201.399 76.0026C201.396 68.4191 197.787 57.4376 190.391 53.9866Z" fill="#FEFFFF"/>
<path d="M217.411 53.4862C215.782 55.7984 213.581 57.6127 212.029 59.9909C207.01 67.682 206.162 76.4909 209.643 85.0091C218.127 105.768 249.255 104.244 257.771 84.5087C260.818 77.4486 260.331 68.7523 256.74 61.9924C255.7 60.0354 254.257 58.2321 252.799 56.5734C252.13 55.8129 251.149 55.0618 251.198 53.9415C251.252 52.7231 252.33 51.5273 252.87 50.484C253.816 48.6527 254.597 46.5341 254.846 44.4797C256.342 32.1452 248.484 21.2418 235.924 19.6061C222.462 17.8533 210.607 30.1963 212.703 43.4789C213.226 46.7943 214.463 51.5613 217.411 53.4862V53.4862Z" fill="#FEFFFF"/>
<path d="M168.375 28.2339C156.633 31.0124 161.581 48.4555 172.879 45.714C184.287 42.9455 179.587 25.5809 168.375 28.2339Z" fill="#9CA3AF"/>
<path d="M231.921 33.7989C222.745 36.629 226.847 50.6681 235.924 48.0873C245.379 45.3993 240.84 31.0479 231.921 33.7989Z" fill="#9CA3AF"/>
<path d="M230.921 63.7597C223.156 65.61 220.631 75.6108 225.683 81.414C228.614 84.7804 232.763 85.539 236.925 84.4867C243.916 82.7189 247.1 73.9496 243.079 67.9987C240.402 64.0374 235.449 62.6809 230.921 63.7597V63.7597Z" fill="#9CA3AF"/>
<path d="M166.874 64.2585C160.156 65.8111 155.371 73.845 157.262 80.5058C159.255 87.5319 166.213 91.8085 173.379 90.2534C186.553 87.3953 187.599 67.9747 174.38 64.311C172.165 63.6971 169.108 63.7426 166.874 64.2585Z" fill="#9CA3AF"/>
</svg>
